<?xml version="1.0" encoding="UTF-8" standalone="no"?>
<svg width="490px" height="71px" viewBox="0 0 490 71" version="1.1" xmlns="http://www.w3.org/2000/svg" xmlns:xlink="http://www.w3.org/1999/xlink" xmlns:sketch="http://www.bohemiancoding.com/sketch/ns">
    <!-- Generator: Sketch 3.4 (15575) - http://www.bohemiancoding.com/sketch -->
    <title>copy-and-paste</title>
    <desc>Created with Sketch.</desc>
    <defs></defs>
    <g id="Page-1" stroke="none" stroke-width="1" fill="none" fill-rule="evenodd" sketch:type="MSPage">
        <g id="copy-and-paste" sketch:type="MSLayerGroup">
            <g id="Page-1" sketch:type="MSShapeGroup">
                <g id="logo">
                    <g id="copy-and-paste">
                        <g id="Page-1">
                            <g id="copy-and-paste">
                                <path d="M39.224,48.2 C38.4559962,47.9599988 37.7240035,47.7800006 37.028,47.66 C36.3319965,47.5399994 35.6480034,47.48 34.976,47.48 C31.8559844,47.48 29.096012,48.7279875 26.696,51.224 C23.3839834,54.824018 20.9840074,56.624 19.496,56.624 L19.208,56.624 C18.6319971,56.3839988 18.2240012,55.7960047 17.984,54.86 C17.7439988,53.9239953 17.624,52.760007 17.624,51.368 C17.624,49.2559894 17.8879974,46.8080139 18.416,44.024 C18.9440026,41.2399861 19.6879952,38.4800137 20.648,35.744 C21.4160038,33.6319894 22.3759942,31.3880119 23.528,29.012 C24.6800058,26.6359881 25.8679939,24.4400101 27.092,22.424 C28.3160061,20.4079899 29.5039942,18.7160068 30.656,17.348 C31.8080058,15.9799932 32.7439964,15.2720002 33.464,15.224 C33.7040012,15.416001 33.8719995,15.7399977 33.968,16.196 C34.0640005,16.6520023 34.112,17.1439974 34.112,17.672 C34.112,18.3920036 34.0760004,19.2199953 34.004,20.156 C33.9319996,21.0920047 33.896,22.0159954 33.896,22.928 C34.0400007,24.2720067 34.3039981,25.4719947 34.688,26.528 C35.0720019,27.5840053 35.6239964,28.507996 36.344,29.3 C37.0640036,30.092004 37.9759945,30.7639972 39.08,31.316 C40.1840055,31.8680028 41.5519918,32.3119983 43.184,32.648 C43.5200017,32.7440005 43.8319986,32.792 44.12,32.792 L44.912,32.792 C46.1600062,32.792 46.987998,32.5640023 47.396,32.108 C47.804002,31.6519977 48.1519986,31.0160041 48.44,30.2 C48.4880002,30.1039995 48.5599995,30.0080005 48.656,29.912 C48.9920017,29.0479957 49.2919987,28.0520056 49.556,26.924 C49.8200013,25.7959944 50.047999,24.632006 50.24,23.432 C50.432001,22.231994 50.5759995,21.0200061 50.672,19.796 C50.7680005,18.5719939 50.816,17.4320053 50.816,16.376 C50.816,14.4079902 50.5280029,12.6080082 49.952,10.976 C49.3759971,9.34399184 48.1040098,7.76000768 46.136,6.224 C45.3679962,5.59999688 44.4440054,5.01200276 43.364,4.46 C42.2839946,3.90799724 41.144006,3.41600216 39.944,2.984 C38.743994,2.55199784 37.4960065,2.19200144 36.2,1.904 C34.9039935,1.61599856 33.656006,1.40000072 32.456,1.256 L32.528,1.256 C32.2879988,1.20799976 32.0240014,1.184 31.736,1.184 L31.016,1.184 C28.1359856,1.184 25.3760132,1.97599208 22.736,3.56 C20.0959868,5.14400792 17.6360114,7.24398692 15.356,9.86 C13.0759886,12.4760131 11.0000094,15.4639832 9.128,18.824 C7.25599064,22.1840168 5.64800672,25.663982 4.304,29.264 C2.95999328,32.864018 1.9280036,36.4279824 1.208,39.956 C0.4879964,43.4840176 0.128,46.7119854 0.128,49.64 C0.128,51.5120094 0.25999868,53.2999915 0.524,55.004 C0.78800132,56.7080085 1.20799712,58.255993 1.784,59.648 L1.784,59.504 C2.07200144,60.3680043 2.49199724,61.2319957 3.044,62.096 C3.59600276,62.9600043 4.21999652,63.7519964 4.916,64.472 C5.61200348,65.1920036 6.34399616,65.8039975 7.112,66.308 C7.88000384,66.8120025 8.6239964,67.159999 9.344,67.352 L9.272,67.352 C10.664007,67.8800026 12.2239914,68.4319971 13.952,69.008 C15.6800086,69.5840029 17.6239892,69.9919988 19.784,70.232 L19.712,70.232 C19.9520012,70.2800002 20.2159986,70.304 20.504,70.304 L21.512,70.304 C26.120023,70.304 30.0799834,69.0560125 33.392,66.56 C36.7040166,64.0639875 39.3439902,60.8000202 41.312,56.768 C41.6960019,55.9519959 42.0319986,55.1720037 42.32,54.428 C42.6080014,53.6839963 42.752,52.9760034 42.752,52.304 C42.752,51.3439952 42.4760028,50.5160035 41.924,49.82 C41.3719972,49.1239965 40.4720062,48.5840019 39.224,48.2 L39.224,48.2 L39.224,48.2 L39.224,48.2 Z M95.008,7.232 C94.2399962,6.60799688 93.2800058,5.98400312 92.128,5.36 C90.9759942,4.73599688 89.7400066,4.17200252 88.42,3.668 C87.0999934,3.16399748 85.7320071,2.76800144 84.316,2.48 C82.8999929,2.19199856 81.5440065,2.048 80.248,2.048 C78.5199914,2.048 76.7200094,2.35999688 74.848,2.984 C72.9759906,3.60800312 71.3200072,4.44799472 69.88,5.504 C66.8559849,7.904012 64.144012,10.7599834 61.744,14.072 C59.343988,17.3840166 57.3160083,20.9119813 55.66,24.656 C54.0039917,28.4000187 52.7440043,32.2159806 51.88,36.104 C51.0159957,39.9920194 50.584,43.735982 50.584,47.336 C50.584,54.344035 52.2039838,59.5879826 55.444,63.068 C58.6840162,66.5480174 63.4959681,68.5999969 69.88,69.224 L69.808,69.224 C70.8640053,69.3680007 71.9199947,69.44 72.976,69.44 C76.1440158,69.44 79.023987,68.6600078 81.616,67.1 C84.208013,65.5399922 86.5239898,63.4880127 88.564,60.944 C90.6040102,58.3999873 92.3799924,55.4840164 93.892,52.196 C95.4040076,48.9079836 96.6519951,45.5360173 97.636,42.08 C98.6200049,38.6239827 99.3519976,35.2160168 99.832,31.856 C100.312002,28.4959832 100.552,25.4720134 100.552,22.784 C100.552,21.1519918 100.480001,19.6160072 100.336,18.176 C100.191999,16.7359928 99.9280019,15.3680065 99.544,14.072 C99.1599981,12.7759935 98.6080036,11.5640056 97.888,10.436 C97.1679964,9.30799436 96.208006,8.24000504 95.008,7.232 L95.008,7.232 L95.008,7.232 L95.008,7.232 Z M82.912,16.16 C83.2960019,16.3040007 83.5719992,16.8319954 83.74,17.744 C83.9080008,18.6560046 83.992,19.8319928 83.992,21.272 C83.992,23.9120132 83.7520024,26.6239861 83.272,29.408 C82.7919976,32.1920139 82.156004,34.879987 81.364,37.472 C80.571996,40.064013 79.672005,42.5119885 78.664,44.816 C77.655995,47.1200115 76.6240053,49.1239915 75.568,50.828 C74.5119947,52.5320085 73.4920049,53.887995 72.508,54.896 C71.5239951,55.904005 70.6480038,56.408 69.88,56.408 C69.0639959,56.408 68.4880017,55.8440056 68.152,54.716 C67.8159983,53.5879944 67.648,52.1840084 67.648,50.504 C67.648,48.1999885 67.9359971,45.644014 68.512,42.836 C69.0880029,40.027986 69.8559952,37.328013 70.816,34.736 C71.5840038,32.6719897 72.4959947,30.536011 73.552,28.328 C74.6080053,26.119989 75.6999944,24.116009 76.828,22.316 C77.9560056,20.515991 79.0479947,19.0400058 80.104,17.888 C81.1600053,16.7359942 82.0719962,16.16 82.84,16.16 L82.912,16.16 L82.912,16.16 L82.912,16.16 Z M148.368,33.944 C150.096009,32.1199909 151.595994,30.21201 152.868,28.22 C154.140006,26.22799 154.776,23.9600127 154.776,21.416 C154.776,19.7359916 154.548002,18.1400076 154.092,16.628 C153.635998,15.1159924 153.060003,13.7000066 152.364,12.38 C151.667997,11.0599934 150.900004,9.83600564 150.06,8.708 C149.219996,7.57999436 148.416004,6.58400432 147.648,5.72 C146.399994,4.37599328 144.936008,3.42800276 143.256,2.876 C141.575992,2.32399724 139.72801,2.048 137.712,2.048 C135.64799,2.048 133.488011,2.2879976 131.232,2.768 C128.975989,3.2480024 126.708011,3.87199616 124.428,4.64 C122.147989,5.40800384 119.940011,6.25999532 117.804,7.196 C115.667989,8.13200468 113.688009,9.05599544 111.864,9.968 C111.239997,10.3040017 110.568004,11.5879888 109.848,13.82 C109.127996,16.0520112 108.396004,18.7999837 107.652,22.064 C106.907996,25.3280163 106.152004,28.8799808 105.384,32.72 C104.615996,36.5600192 103.860004,40.2679821 103.116,43.844 C102.371996,47.4200179 101.652003,50.611986 100.956,53.42 C100.259996,56.228014 99.6000031,58.231994 98.976,59.432 C98.5919981,60.5840058 98.4,61.5199964 98.4,62.24 C98.4,63.440006 98.6759972,64.4239962 99.228,65.192 C99.7800028,65.9600038 100.499996,66.6079974 101.388,67.136 C102.276004,67.6640026 103.295994,68.1199981 104.448,68.504 C105.600006,68.8880019 106.751994,69.2719981 107.904,69.656 C108.528003,69.8000007 109.151997,69.872 109.776,69.872 C110.784005,69.872 111.527998,69.6320024 112.008,69.152 C112.488002,68.6719976 112.943998,67.9520048 113.376,66.992 C114.048003,64.2559863 114.779996,61.5080138 115.572,58.748 C116.364004,55.9879862 117.167996,53.1680144 117.984,50.288 C120.864014,49.4239957 123.755985,48.4040059 126.66,47.228 C129.564015,46.0519941 132.347987,44.768007 135.012,43.376 C137.676013,41.983993 140.147989,40.484008 142.428,38.876 C144.708011,37.267992 146.687992,35.6240084 148.368,33.944 L148.368,33.944 L148.368,33.944 L148.368,33.944 Z M127.992,19.544 C129.576008,18.8719966 131.111993,18.3920014 132.6,18.104 C134.088007,17.8159986 135.383994,17.672 136.488,17.672 C137.352004,17.672 137.987998,17.7079996 138.396,17.78 C138.804002,17.8520004 139.067999,17.9479994 139.188,18.068 C139.308001,18.1880006 139.344,18.3079994 139.296,18.428 C139.248,18.5480006 139.224,18.6559995 139.224,18.752 C139.224,19.6640046 138.876003,20.7079941 138.18,21.884 C137.483997,23.0600059 136.476007,24.2839936 135.156,25.556 C133.835993,26.8280064 132.19201,28.0999936 130.224,29.372 C128.25599,30.6440064 126.000013,31.783995 123.456,32.792 C124.272004,30.3439878 125.051996,28.0280109 125.796,25.844 C126.540004,23.6599891 127.271996,21.5600101 127.992,19.544 L127.992,19.544 L127.992,19.544 L127.992,19.544 Z M203.872,13.784 C204.256002,13.0639964 204.555999,12.404003 204.772,11.804 C204.988001,11.203997 205.096,10.5920031 205.096,9.968 C205.096,9.39199712 204.796003,8.61200492 204.196,7.628 C203.595997,6.64399508 202.816005,5.68400468 201.856,4.748 C200.895995,3.81199532 199.828006,3.00800336 198.652,2.336 C197.475994,1.66399664 196.288006,1.328 195.088,1.328 C194.367996,1.328 193.708003,1.49599832 193.108,1.832 C192.507997,2.16800168 192.016002,2.79199544 191.632,3.704 C189.471989,7.25601776 187.276011,10.8079822 185.044,14.36 C182.811989,17.9120178 180.520012,21.4639822 178.168,25.016 C177.447996,21.5599827 176.728004,18.2960154 176.008,15.224 C175.287996,12.1519846 174.640003,9.46401152 174.064,7.16 C173.823999,6.4399964 173.584001,5.80400276 173.344,5.252 C173.103999,4.69999724 172.804002,4.23200192 172.444,3.848 C172.083998,3.46399808 171.640003,3.14000132 171.112,2.876 C170.583997,2.61199868 169.912004,2.38400096 169.096,2.192 L169.168,2.264 C168.447996,2.07199904 167.788003,1.95200024 167.188,1.904 C166.587997,1.85599976 166.000003,1.832 165.424,1.832 C162.783987,1.832 160.852006,2.04799784 159.628,2.48 C158.403994,2.91200216 157.792,3.82399304 157.792,5.216 C157.792,5.84000312 157.863999,6.43999712 158.008,7.016 C158.440002,9.46401224 158.919997,12.1519854 159.448,15.08 C159.976003,18.0080146 160.563997,21.0439843 161.212,24.188 C161.860003,27.3320157 162.519997,30.499984 163.192,33.692 C163.864003,36.884016 164.559996,39.9439854 165.28,42.872 C164.751997,44.8400098 164.260002,46.7479908 163.804,48.596 C163.347998,50.4440092 162.952002,52.2079916 162.616,53.888 L162.688,53.816 C162.303998,55.4000079 161.908002,56.9479924 161.5,58.46 C161.091998,59.9720076 160.888,61.3039942 160.888,62.456 C160.888,63.6080058 161.187997,64.579996 161.788,65.372 C162.388003,66.164004 163.167995,66.8479971 164.128,67.424 C165.088005,68.0000029 166.143994,68.491998 167.296,68.9 C168.448006,69.308002 169.599994,69.7039981 170.752,70.088 C171.616004,70.3760014 172.335997,70.52 172.912,70.52 C173.872005,70.52 174.567998,70.2800024 175,69.8 C175.432002,69.3199976 175.815998,68.6000048 176.152,67.64 C176.872004,64.5199844 177.663996,61.3760158 178.528,58.208 C179.392004,55.0399842 180.375994,51.8000166 181.48,48.488 C183.688011,45.3199842 185.943988,42.0440169 188.248,38.66 C190.552012,35.2759831 192.73599,32.0240156 194.8,28.904 C196.86401,25.7839844 198.687992,22.9160131 200.272,20.3 C201.856008,17.6839869 203.055996,15.5120086 203.872,13.784 L203.872,13.784 L203.872,13.784 L203.872,13.784 Z" id="Copy" fill-opacity="0.799999952" fill="#303841"></path>
                                <path d="M223.126,53.11 C223.910004,53.8100035 224.553997,54.2929987 225.058,54.559 C225.562003,54.8250013 226.135997,54.958 226.78,54.958 C227.648004,54.958 228.361997,54.7970016 228.922,54.475 C229.482003,54.1529984 230.041997,53.796002 230.602,53.404 L230.56,53.446 C230.952002,53.1659986 231.252999,52.8930013 231.463,52.627 C231.673001,52.3609987 231.778,52.0460018 231.778,51.682 C231.778,51.485999 231.701001,51.2480014 231.547,50.968 C231.392999,50.6879986 231.197001,50.4010015 230.959,50.107 C230.720999,49.8129985 230.462001,49.5120015 230.182,49.204 C229.901999,48.8959985 229.622001,48.5880015 229.342,48.28 L229.342,48.322 L228.628,47.566 C228.992002,47.2859986 229.355998,46.9010024 229.72,46.411 C230.084002,45.9209976 230.405999,45.3890029 230.686,44.815 C230.966001,44.2409971 231.189999,43.6670029 231.358,43.093 C231.526001,42.5189971 231.61,41.9800025 231.61,41.476 C231.61,41.1119982 231.561,40.734002 231.463,40.342 C231.365,39.949998 231.225001,39.5930016 231.043,39.271 C230.860999,38.9489984 230.630001,38.690001 230.35,38.494 C230.069999,38.297999 229.748002,38.2 229.384,38.2 C229.019998,38.2 228.614002,38.3259987 228.166,38.578 C227.717998,38.8300013 227.249002,39.1379982 226.759,39.502 C226.268998,39.8660018 225.779002,40.2579979 225.289,40.678 C224.798998,41.0980021 224.330002,41.4759983 223.882,41.812 C223.405998,41.1679968 222.944002,40.5380031 222.496,39.922 C222.047998,39.3059969 221.600002,38.6620034 221.152,37.99 C222.552007,37.1779959 223.916993,36.3240045 225.247,35.428 C226.577007,34.5319955 227.689996,33.6080048 228.586,32.656 L228.544,32.656 C230.50401,30.6119898 231.484,28.4420115 231.484,26.146 C231.484,23.7939882 230.49001,21.5120111 228.502,19.3 C227.325994,17.9559933 226.192005,17.0460024 225.1,16.57 C224.007995,16.0939976 222.874006,15.856 221.698,15.856 C220.521994,15.856 219.318006,16.0099985 218.086,16.318 C216.853994,16.6260015 215.671006,17.0739971 214.537,17.662 C213.402994,18.2500029 212.360005,18.9639958 211.408,19.804 C210.455995,20.6440042 209.672003,21.5819948 209.056,22.618 L209.056,22.576 C207.935994,24.3960091 207.376,26.201991 207.376,27.994 C207.376,28.4420022 207.411,28.9389973 207.481,29.485 C207.551,30.0310027 207.669999,30.604997 207.838,31.207 C208.006001,31.809003 208.215999,32.410997 208.468,33.013 C208.720001,33.615003 209.027998,34.1819973 209.392,34.714 C209.42,34.8260006 209.489999,35.0219986 209.602,35.302 C208.285993,36.0860039 207.082005,36.9049957 205.99,37.759 C204.897995,38.6130043 203.960004,39.5019954 203.176,40.426 C202.391996,41.3500046 201.783002,42.308995 201.349,43.303 C200.914998,44.297005 200.698,45.3119948 200.698,46.348 C200.698,47.4120053 200.970997,48.5319941 201.517,49.708 C202.063003,50.8840059 202.979994,52.0039947 204.268,53.068 C205.556006,54.1320053 206.822994,54.8529981 208.069,55.231 C209.315006,55.6090019 210.525994,55.8119999 211.702,55.84 C212.570004,55.84 213.402996,55.7490009 214.201,55.567 C214.999004,55.3849991 215.761996,55.1820011 216.49,54.958 L216.448,54.958 C217.540005,54.7059987 218.589995,54.3700021 219.598,53.95 C220.606005,53.5299979 221.571995,53.0400028 222.496,52.48 L223.126,53.11 L223.126,53.11 L223.126,53.11 Z M216.91,29.128 C216.91,28.5399971 217.070998,27.9520029 217.393,27.364 C217.715002,26.7759971 218.134997,26.2300025 218.653,25.726 C219.171003,25.2219975 219.772997,24.774002 220.459,24.382 C221.145003,23.989998 221.865996,23.6820011 222.622,23.458 C222.874001,23.8780021 223,24.3119978 223,24.76 C223,25.4320034 222.832002,26.068997 222.496,26.671 C222.159998,27.273003 221.726003,27.8329974 221.194,28.351 C220.661997,28.8690026 220.046003,29.3519978 219.346,29.8 C218.645996,30.2480022 217.946003,30.667998 217.246,31.06 C217.105999,30.7239983 217.015,30.3950016 216.973,30.073 C216.931,29.7509984 216.91,29.4360015 216.91,29.128 L216.91,29.128 L216.91,29.128 L216.91,29.128 Z M210.988,48.028 C210.651998,48.028 210.428001,48.0070002 210.316,47.965 C210.203999,47.9229998 210.148,47.7760013 210.148,47.524 L210.148,47.44 C210.204,46.8239969 210.532997,46.0960042 211.135,45.256 C211.737003,44.4159958 212.723993,43.4640053 214.096,42.4 C214.572002,43.0440032 215.026998,43.666997 215.461,44.269 C215.895002,44.871003 216.363997,45.4939968 216.868,46.138 C215.607994,46.7540031 214.481005,47.2229984 213.487,47.545 C212.492995,47.8670016 211.660003,48.028 210.988,48.028 L210.988,48.028 L210.988,48.028 L210.988,48.028 Z" id="&amp;" fill="#D3CFCF"></path>
                                <path d="M288.24,33.944 C289.968009,32.1199909 291.467994,30.21201 292.74,28.22 C294.012006,26.22799 294.648,23.9600127 294.648,21.416 C294.648,19.7359916 294.420002,18.1400076 293.964,16.628 C293.507998,15.1159924 292.932003,13.7000066 292.236,12.38 C291.539997,11.0599934 290.772004,9.83600564 289.932,8.708 C289.091996,7.57999436 288.288004,6.58400432 287.52,5.72 C286.271994,4.37599328 284.808008,3.42800276 283.128,2.876 C281.447992,2.32399724 279.60001,2.048 277.584,2.048 C275.51999,2.048 273.360011,2.2879976 271.104,2.768 C268.847989,3.2480024 266.580011,3.87199616 264.3,4.64 C262.019989,5.40800384 259.812011,6.25999532 257.676,7.196 C255.539989,8.13200468 253.560009,9.05599544 251.736,9.968 C251.111997,10.3040017 250.440004,11.5879888 249.72,13.82 C248.999996,16.0520112 248.268004,18.7999837 247.524,22.064 C246.779996,25.3280163 246.024004,28.8799808 245.256,32.72 C244.487996,36.5600192 243.732004,40.2679821 242.988,43.844 C242.243996,47.4200179 241.524003,50.611986 240.828,53.42 C240.131997,56.228014 239.472003,58.231994 238.848,59.432 C238.463998,60.5840058 238.272,61.5199964 238.272,62.24 C238.272,63.440006 238.547997,64.4239962 239.1,65.192 C239.652003,65.9600038 240.371996,66.6079974 241.26,67.136 C242.148004,67.6640026 243.167994,68.1199981 244.32,68.504 C245.472006,68.8880019 246.623994,69.2719981 247.776,69.656 C248.400003,69.8000007 249.023997,69.872 249.648,69.872 C250.656005,69.872 251.399998,69.6320024 251.88,69.152 C252.360002,68.6719976 252.815998,67.9520048 253.248,66.992 C253.920003,64.2559863 254.651996,61.5080138 255.444,58.748 C256.236004,55.9879862 257.039996,53.1680144 257.856,50.288 C260.736014,49.4239957 263.627985,48.4040059 266.532,47.228 C269.436015,46.0519941 272.219987,44.768007 274.884,43.376 C277.548013,41.983993 280.019989,40.484008 282.3,38.876 C284.580011,37.267992 286.559992,35.6240084 288.24,33.944 L288.24,33.944 L288.24,33.944 L288.24,33.944 Z M267.864,19.544 C269.448008,18.8719966 270.983993,18.3920014 272.472,18.104 C273.960007,17.8159986 275.255994,17.672 276.36,17.672 C277.224004,17.672 277.859998,17.7079996 278.268,17.78 C278.676002,17.8520004 278.939999,17.9479994 279.06,18.068 C279.180001,18.1880006 279.216,18.3079994 279.168,18.428 C279.12,18.5480006 279.096,18.6559995 279.096,18.752 C279.096,19.6640046 278.748003,20.7079941 278.052,21.884 C277.355997,23.0600059 276.348007,24.2839936 275.028,25.556 C273.707993,26.8280064 272.06401,28.0999936 270.096,29.372 C268.12799,30.6440064 265.872013,31.783995 263.328,32.792 C264.144004,30.3439878 264.923996,28.0280109 265.668,25.844 C266.412004,23.6599891 267.143996,21.5600101 267.864,19.544 L267.864,19.544 L267.864,19.544 L267.864,19.544 Z M319.376,62.528 C319.472,64.4480096 319.795997,65.803996 320.348,66.596 C320.900003,67.388004 321.919993,68.0239976 323.408,68.504 L323.336,68.432 C324.584006,68.9600026 325.783994,69.2719995 326.936,69.368 C328.088006,69.4640005 329.335993,69.512 330.68,69.512 C332.456009,69.512 333.631997,69.2240029 334.208,68.648 C334.784003,68.0719971 335.072,67.0160077 335.072,65.48 C335.216001,60.871977 335.383999,56.0120256 335.576,50.9 C335.768001,45.7879744 335.995999,40.7840245 336.26,35.888 C336.524001,30.9919755 336.811998,26.3600218 337.124,21.992 C337.436002,17.6239782 337.783998,13.8560158 338.168,10.688 L338.168,10.76 C338.216,10.5199988 338.24,10.2800012 338.24,10.04 L338.24,9.248 C338.24,7.99999376 337.976003,6.98000396 337.448,6.188 C336.919997,5.39599604 335.912007,4.73600264 334.424,4.208 L333.128,3.848 C331.447992,3.27199712 329.492011,2.70800276 327.26,2.156 C325.027989,1.60399724 322.256017,1.328 318.944,1.328 C316.97599,1.328 315.428006,1.7479958 314.3,2.588 C313.171994,3.4280042 312.200004,4.47199376 311.384,5.72 C309.223989,9.0800168 306.860013,13.0159774 304.292,17.528 C301.723987,22.0400226 299.156013,26.695976 296.588,31.496 C294.019987,36.296024 291.572012,41.0119768 289.244,45.644 C286.915988,50.2760232 284.936008,54.4159818 283.304,58.064 C282.967998,58.8800041 282.740001,59.5999969 282.62,60.224 C282.499999,60.8480031 282.44,61.4239974 282.44,61.952 C282.44,62.7200038 282.631998,63.403997 283.016,64.004 C283.400002,64.604003 283.891997,65.1559975 284.492,65.66 C285.092003,66.1640025 285.775996,66.6319978 286.544,67.064 C287.312004,67.4960022 288.079996,67.9039981 288.848,68.288 L289.712,68.72 C290.624005,69.1040019 291.463996,69.296 292.232,69.296 C293.096004,69.296 293.887996,68.8640043 294.608,68 C295.328004,67.1359957 296.047996,66.0440066 296.768,64.724 C297.488004,63.4039934 298.195997,61.9640078 298.892,60.404 C299.588003,58.8439922 300.319996,57.3920067 301.088,56.048 C303.488012,55.4239969 306.259984,54.8600025 309.404,54.356 C312.548016,53.8519975 315.751984,53.3600024 319.016,52.88 L319.16,54.32 C319.16,57.4400156 319.231999,60.1759882 319.376,62.528 L319.376,62.528 L319.376,62.528 L319.376,62.528 Z M320.24,21.632 C320.047999,24.224013 319.880001,26.8639866 319.736,29.552 C319.591999,32.2400134 319.448001,34.9519863 319.304,37.688 C317.815993,37.7840005 316.352007,37.9039993 314.912,38.048 C313.471993,38.1920007 312.008007,38.3839988 310.52,38.624 C312.200008,35.5519846 313.867992,32.5880143 315.524,29.732 C317.180008,26.8759857 318.751993,24.1760127 320.24,21.632 L320.24,21.632 L320.24,21.632 L320.24,21.632 Z M342.872,49.28 C342.199997,49.6640019 341.672002,50.1439971 341.288,50.72 C340.903998,51.2960029 340.664,51.9199966 340.568,52.592 L340.568,52.88 C340.568,53.9840055 341.57599,55.735988 343.592,58.136 C346.904017,62.2640206 350.335982,65.2159911 353.888,66.992 C357.440018,68.7680089 361.18398,69.656 365.12,69.656 L366.056,69.656 C369.176016,69.6079998 371.875989,69.1640042 374.156,68.324 C376.436011,67.4839958 378.367992,66.4520061 379.952,65.228 C381.536008,64.0039939 382.819995,62.696007 383.804,61.304 C384.788005,59.911993 385.567997,58.616006 386.144,57.416 L386.072,57.488 C386.840004,55.9999926 387.224,54.5840067 387.224,53.24 C387.224,51.2239899 386.576006,49.412008 385.28,47.804 C383.983994,46.195992 382.37601,44.6360076 380.456,43.124 C378.53599,41.6119924 376.508011,40.0760078 374.372,38.516 C372.235989,36.9559922 370.328008,35.2640091 368.648,33.44 C368.119997,32.9119974 367.748001,32.3360031 367.532,31.712 C367.315999,31.0879969 367.208,30.4640031 367.208,29.84 C367.208,28.5439935 367.531997,27.2120068 368.18,25.844 C368.828003,24.4759932 369.607995,23.1800061 370.52,21.956 C371.432005,20.7319939 372.403995,19.6640046 373.436,18.752 C374.468005,17.8399954 375.391996,17.1680022 376.208,16.736 C376.256,16.6879998 376.28,16.664 376.28,16.664 C376.328,16.664 376.376,16.6400002 376.424,16.592 C376.279999,17.4080041 376.052002,18.3679945 375.74,19.472 C375.427998,20.5760055 375.116002,21.6919944 374.804,22.82 C374.491998,23.9480056 374.216001,24.9919952 373.976,25.952 C373.735999,26.9120048 373.616,27.6319976 373.616,28.112 C373.616,32.1440202 376.61597,35.3119885 382.616,37.616 C383.384004,37.9040014 384.127996,38.048 384.848,38.048 C385.712004,38.048 386.407997,37.8320022 386.936,37.4 C387.464003,36.9679978 387.967998,36.2720048 388.448,35.312 C389.024003,34.2079945 389.587997,32.9240073 390.14,31.46 C390.692003,29.9959927 391.207998,28.4840078 391.688,26.924 C392.168002,25.3639922 392.599998,23.8280076 392.984,22.316 C393.368002,20.8039924 393.655999,19.4240062 393.848,18.176 L393.848,16.448 C393.848,15.055993 393.656002,13.6280073 393.272,12.164 C392.887998,10.6999927 391.928008,9.20000768 390.392,7.664 C389.479995,6.75199544 388.388006,5.88800408 387.116,5.072 C385.843994,4.25599592 384.500007,3.52400324 383.084,2.876 C381.667993,2.22799676 380.252007,1.71200192 378.836,1.328 C377.419993,0.94399808 376.112006,0.752 374.912,0.752 C373.183991,0.752 371.612007,0.9919976 370.196,1.472 C368.779993,1.9520024 367.664004,2.52799664 366.848,3.2 L366.92,3.128 C365.239992,4.0880048 363.548009,5.29999268 361.844,6.764 C360.139991,8.22800732 358.532008,9.7999916 357.02,11.48 C355.507992,13.1600084 354.164006,14.899991 352.988,16.7 C351.811994,18.500009 350.936003,20.2159918 350.36,21.848 L350.432,21.776 C349.279994,24.4640134 348.704,27.0319878 348.704,29.48 C348.704,31.9280122 349.183995,34.2079894 350.144,36.32 C351.104005,38.4320106 352.423992,40.2799921 354.104,41.864 L354.104,41.792 C355.448007,43.184007 356.995991,44.5399934 358.748,45.86 C360.500009,47.1800066 362.167992,48.4159942 363.752,49.568 C365.336008,50.7200058 366.691994,51.7399956 367.82,52.628 C368.948006,53.5160044 369.56,54.2479971 369.656,54.824 C369.031997,55.3040024 368.192005,55.544 367.136,55.544 C364.063985,55.544 360.008025,53.7200182 354.968,50.072 C354.103996,49.3999966 353.096006,48.9080016 351.944,48.596 C350.791994,48.2839984 349.592006,48.128 348.344,48.128 C347.479996,48.128 346.592005,48.2119992 345.68,48.38 C344.767995,48.5480008 343.880004,48.8239981 343.016,49.208 L342.872,49.28 L342.872,49.28 L342.872,49.28 Z M445.816,12.488 C445.816,11.8159966 445.720001,11.0960038 445.528,10.328 C445.335999,9.55999616 445.072002,8.78000396 444.736,7.988 C444.399998,7.19599604 444.028002,6.4400036 443.62,5.72 C443.211998,4.9999964 442.792002,4.35200288 442.36,3.776 C441.783997,3.10399664 441.112004,2.5880018 440.344,2.228 C439.575996,1.8679982 438.424008,1.688 436.888,1.688 C434.343987,1.78400048 431.488016,1.9519988 428.32,2.192 C425.151984,2.4320012 421.912017,2.71999832 418.6,3.056 C415.287983,3.39200168 412.036016,3.77599784 408.844,4.208 C405.651984,4.64000216 402.784013,5.0959976 400.24,5.576 C399.279995,5.76800096 398.548003,6.06799796 398.044,6.476 C397.539997,6.88400204 397.288,7.54399544 397.288,8.456 C397.288,9.08000312 397.383999,9.67999712 397.576,10.256 L397.576,10.184 L397.792,10.832 C398.080001,11.6960043 398.451998,12.6559947 398.908,13.712 C399.364002,14.7680053 399.891997,15.7759952 400.492,16.736 C401.092003,17.6960048 401.787996,18.4999968 402.58,19.148 C403.372004,19.7960032 404.271995,20.12 405.28,20.12 C406.192005,20.12 407.151995,20.0000012 408.16,19.76 C409.168005,19.5199988 410.367993,19.2800012 411.76,19.04 C410.799995,22.2080158 409.804005,25.6519814 408.772,29.372 C407.739995,33.0920186 406.768005,36.7879816 405.856,40.46 C404.943995,44.1320184 404.116004,47.6479832 403.372,51.008 C402.627996,54.3680168 402.040002,57.247988 401.608,59.648 L401.608,59.576 C401.367999,60.5360048 401.248,61.3039971 401.248,61.88 C401.248,63.7040091 401.859994,65.0599956 403.084,65.948 C404.308006,66.8360044 405.87999,67.6159966 407.8,68.288 L407.728,68.288 C408.736005,68.6720019 409.743995,69.0079986 410.752,69.296 C411.760005,69.5840014 412.599997,69.728 413.272,69.728 C414.136004,69.728 414.855997,69.5120022 415.432,69.08 C416.008003,68.6479978 416.415999,67.8800055 416.656,66.776 L416.584,66.848 C417.592005,63.0079808 418.683994,58.9520214 419.86,54.68 C421.036006,50.4079786 422.271994,46.1000217 423.568,41.756 C424.864006,37.4119783 426.159994,33.0920215 427.456,28.796 C428.752006,24.4999785 429.999994,20.4080194 431.2,16.52 C433.16801,16.327999 435.051991,16.1600007 436.852,16.016 C438.652009,15.8719993 440.391992,15.6800012 442.072,15.44 C443.512007,15.3439995 444.495997,15.0680023 445.024,14.612 C445.552003,14.1559977 445.816,13.4480048 445.816,12.488 L445.816,12.488 L445.816,12.488 L445.816,12.488 Z M452.208,7.448 L439.68,55.4 C439.535999,56.1200036 439.464,56.8399964 439.464,57.56 C439.464,58.8080062 439.655998,59.8639957 440.04,60.728 C440.424002,61.5920043 440.951997,62.3839964 441.624,63.104 L441.624,63.032 C442.440004,63.9920048 443.195997,64.8439963 443.892,65.588 C444.588003,66.3320037 445.271997,66.9799972 445.944,67.532 C446.616003,68.0840028 447.347996,68.5039986 448.14,68.792 C448.932004,69.0800014 449.855995,69.224 450.912,69.224 C451.824005,69.224 452.951993,69.0560017 454.296,68.72 L454.224,68.792 C457.248015,68.1199966 460.379984,67.4360035 463.62,66.74 C466.860016,66.0439965 470.015985,65.3600034 473.088,64.688 C474.480007,64.3999986 475.439997,64.0400022 475.968,63.608 C476.496003,63.1759978 476.76,62.4080055 476.76,61.304 C476.76,60.0559938 476.532002,58.736007 476.076,57.344 C475.619998,55.951993 475.104003,54.6800058 474.528,53.528 L474.528,53.6 C474.095998,52.4479942 473.484004,51.6200025 472.692,51.116 C471.899996,50.6119975 470.856006,50.36 469.56,50.36 C467.399989,50.36 465.34801,50.5039986 463.404,50.792 C461.45999,51.0800014 459.576009,51.3919983 457.752,51.728 C457.848,50.8639957 458.087998,49.8680056 458.472,48.74 C458.856002,47.6119944 459.239998,46.5680048 459.624,45.608 C461.304008,45.2239981 463.007991,44.8760016 464.736,44.564 C466.464009,44.2519984 468.239991,43.9040019 470.064,43.52 L469.992,43.52 C471.240006,43.327999 472.451994,43.1480008 473.628,42.98 C474.804006,42.8119992 475.835996,42.5840014 476.724,42.296 C477.612004,42.0079986 478.331997,41.6120025 478.884,41.108 C479.436003,40.6039975 479.712,39.9440041 479.712,39.128 C479.712,38.6959978 479.616001,38.1200036 479.424,37.4 L479.496,37.472 C479.255999,36.463995 479.016001,35.4680049 478.776,34.484 C478.535999,33.4999951 478.128003,32.4560055 477.552,31.352 L477.552,31.424 C477.023997,30.223994 476.352004,29.4080022 475.536,28.976 C474.719996,28.5439978 473.616007,28.328 472.224,28.328 L471.72,28.328 C469.607989,28.3760002 467.52001,28.5199988 465.456,28.76 C466.128003,26.9359909 466.775997,25.1000092 467.4,23.252 C468.024003,21.4039908 468.623997,19.6880079 469.2,18.104 C472.176015,17.6719978 474.983987,17.3000016 477.624,16.988 C480.264013,16.6759984 482.831988,16.4000012 485.328,16.16 C486.912008,15.967999 487.991997,15.6080026 488.568,15.08 C489.144003,14.5519974 489.432,13.6400065 489.432,12.344 C489.432,11.6719966 489.336001,11.0240031 489.144,10.4 L489.216,10.472 C489.071999,9.65599592 488.904001,8.8880036 488.712,8.168 C488.519999,7.4479964 488.184002,6.53600552 487.704,5.432 L487.704,5.504 C487.271998,4.25599376 486.636004,3.32000312 485.796,2.696 C484.955996,2.07199688 483.768008,1.76 482.232,1.76 L481.872,1.76 C479.327987,1.85600048 476.760013,2.07199832 474.168,2.408 C471.575987,2.74400168 469.044012,3.12799784 466.572,3.56 C464.099988,3.99200216 461.724011,4.45999748 459.444,4.964 C457.163989,5.46800252 455.06401,5.9599976 453.144,6.44 L452.208,7.448 L452.208,7.448 L452.208,7.448 Z" id="PASTE" fill-opacity="0.799999952" fill="#303841"></path>
                            </g>
                        </g>
                    </g>
                </g>
            </g>
        </g>
    </g>
</svg>