<?xml version="1.0" encoding="UTF-8" standalone="no"?>
<svg width="485px" height="71px" viewBox="0 0 485 71" version="1.1" xmlns="http://www.w3.org/2000/svg" xmlns:xlink="http://www.w3.org/1999/xlink" xmlns:sketch="http://www.bohemiancoding.com/sketch/ns">
    <!-- Generator: Sketch 3.4 (15575) - http://www.bohemiancoding.com/sketch -->
    <title>copy-and-paste</title>
    <desc>Created with Sketch.</desc>
    <defs></defs>
    <g id="Page-1" stroke="none" stroke-width="1" fill="none" fill-rule="evenodd" sketch:type="MSPage">
        <g id="copy-and-paste" sketch:type="MSLayerGroup">
            <path d="M39.224,48.2 C38.4559962,47.9599988 37.7240035,47.7800006 37.028,47.66 C36.3319965,47.5399994 35.6480034,47.48 34.976,47.48 C31.8559844,47.48 29.096012,48.7279875 26.696,51.224 C23.3839834,54.824018 20.9840074,56.624 19.496,56.624 L19.208,56.624 C18.6319971,56.3839988 18.2240012,55.7960047 17.984,54.86 C17.7439988,53.9239953 17.624,52.760007 17.624,51.368 C17.624,49.2559894 17.8879974,46.8080139 18.416,44.024 C18.9440026,41.2399861 19.6879952,38.4800137 20.648,35.744 C21.4160038,33.6319894 22.3759942,31.3880119 23.528,29.012 C24.6800058,26.6359881 25.8679939,24.4400101 27.092,22.424 C28.3160061,20.4079899 29.5039942,18.7160068 30.656,17.348 C31.8080058,15.9799932 32.7439964,15.2720002 33.464,15.224 C33.7040012,15.416001 33.8719995,15.7399977 33.968,16.196 C34.0640005,16.6520023 34.112,17.1439974 34.112,17.672 C34.112,18.3920036 34.0760004,19.2199953 34.004,20.156 C33.9319996,21.0920047 33.896,22.0159954 33.896,22.928 C34.0400007,24.2720067 34.3039981,25.4719947 34.688,26.528 C35.0720019,27.5840053 35.6239964,28.507996 36.344,29.3 C37.0640036,30.092004 37.9759945,30.7639972 39.08,31.316 C40.1840055,31.8680028 41.5519918,32.3119983 43.184,32.648 C43.5200017,32.7440005 43.8319986,32.792 44.12,32.792 C44.4080014,32.792 44.6719988,32.792 44.912,32.792 C46.1600062,32.792 46.987998,32.5640023 47.396,32.108 C47.804002,31.6519977 48.1519986,31.0160041 48.44,30.2 C48.4880002,30.1039995 48.5599995,30.0080005 48.656,29.912 C48.9920017,29.0479957 49.2919987,28.0520056 49.556,26.924 C49.8200013,25.7959944 50.047999,24.632006 50.24,23.432 C50.432001,22.231994 50.5759995,21.0200061 50.672,19.796 C50.7680005,18.5719939 50.816,17.4320053 50.816,16.376 C50.816,14.4079902 50.5280029,12.6080082 49.952,10.976 C49.3759971,9.34399184 48.1040098,7.76000768 46.136,6.224 C45.3679962,5.59999688 44.4440054,5.01200276 43.364,4.46 C42.2839946,3.90799724 41.144006,3.41600216 39.944,2.984 C38.743994,2.55199784 37.4960065,2.19200144 36.2,1.904 C34.9039935,1.61599856 33.656006,1.40000072 32.456,1.256 L32.528,1.256 C32.2879988,1.20799976 32.0240014,1.184 31.736,1.184 L31.016,1.184 C28.1359856,1.184 25.3760132,1.97599208 22.736,3.56 C20.0959868,5.14400792 17.6360114,7.24398692 15.356,9.86 C13.0759886,12.4760131 11.0000094,15.4639832 9.128,18.824 C7.25599064,22.1840168 5.64800672,25.663982 4.304,29.264 C2.95999328,32.864018 1.9280036,36.4279824 1.208,39.956 C0.4879964,43.4840176 0.128,46.7119854 0.128,49.64 C0.128,51.5120094 0.25999868,53.2999915 0.524,55.004 C0.78800132,56.7080085 1.20799712,58.255993 1.784,59.648 L1.784,59.504 C2.07200144,60.3680043 2.49199724,61.2319957 3.044,62.096 C3.59600276,62.9600043 4.21999652,63.7519964 4.916,64.472 C5.61200348,65.1920036 6.34399616,65.8039975 7.112,66.308 C7.88000384,66.8120025 8.6239964,67.159999 9.344,67.352 L9.272,67.352 C10.664007,67.8800026 12.2239914,68.4319971 13.952,69.008 C15.6800086,69.5840029 17.6239892,69.9919988 19.784,70.232 L19.712,70.232 C19.9520012,70.2800002 20.2159986,70.304 20.504,70.304 L21.512,70.304 C26.120023,70.304 30.0799834,69.0560125 33.392,66.56 C36.7040166,64.0639875 39.3439902,60.8000202 41.312,56.768 C41.6960019,55.9519959 42.0319986,55.1720037 42.32,54.428 C42.6080014,53.6839963 42.752,52.9760034 42.752,52.304 C42.752,51.3439952 42.4760028,50.5160035 41.924,49.82 C41.3719972,49.1239965 40.4720062,48.5840019 39.224,48.2 L39.224,48.2 Z M93.008,7.232 C92.2399962,6.60799688 91.2800058,5.98400312 90.128,5.36 C88.9759942,4.73599688 87.7400066,4.17200252 86.42,3.668 C85.0999934,3.16399748 83.7320071,2.76800144 82.316,2.48 C80.8999929,2.19199856 79.5440065,2.048 78.248,2.048 C76.5199914,2.048 74.7200094,2.35999688 72.848,2.984 C70.9759906,3.60800312 69.3200072,4.44799472 67.88,5.504 C64.8559849,7.904012 62.144012,10.7599834 59.744,14.072 C57.343988,17.3840166 55.3160083,20.9119813 53.66,24.656 C52.0039917,28.4000187 50.7440043,32.2159806 49.88,36.104 C49.0159957,39.9920194 48.584,43.735982 48.584,47.336 C48.584,54.344035 50.2039838,59.5879826 53.444,63.068 C56.6840162,66.5480174 61.4959681,68.5999969 67.88,69.224 L67.808,69.224 C68.8640053,69.3680007 69.9199947,69.44 70.976,69.44 C74.1440158,69.44 77.023987,68.6600078 79.616,67.1 C82.208013,65.5399922 84.5239898,63.4880127 86.564,60.944 C88.6040102,58.3999873 90.3799924,55.4840164 91.892,52.196 C93.4040076,48.9079836 94.6519951,45.5360173 95.636,42.08 C96.6200049,38.6239827 97.3519976,35.2160168 97.832,31.856 C98.3120024,28.4959832 98.552,25.4720134 98.552,22.784 C98.552,21.1519918 98.4800007,19.6160072 98.336,18.176 C98.1919993,16.7359928 97.9280019,15.3680065 97.544,14.072 C97.1599981,12.7759935 96.6080036,11.5640056 95.888,10.436 C95.1679964,9.30799436 94.208006,8.24000504 93.008,7.232 L93.008,7.232 Z M80.912,16.16 C81.2960019,16.3040007 81.5719992,16.8319954 81.74,17.744 C81.9080008,18.6560046 81.992,19.8319928 81.992,21.272 C81.992,23.9120132 81.7520024,26.6239861 81.272,29.408 C80.7919976,32.1920139 80.156004,34.879987 79.364,37.472 C78.571996,40.064013 77.672005,42.5119885 76.664,44.816 C75.655995,47.1200115 74.6240053,49.1239915 73.568,50.828 C72.5119947,52.5320085 71.4920049,53.887995 70.508,54.896 C69.5239951,55.904005 68.6480038,56.408 67.88,56.408 C67.0639959,56.408 66.4880017,55.8440056 66.152,54.716 C65.8159983,53.5879944 65.648,52.1840084 65.648,50.504 C65.648,48.1999885 65.9359971,45.644014 66.512,42.836 C67.0880029,40.027986 67.8559952,37.328013 68.816,34.736 C69.5840038,32.6719897 70.4959947,30.536011 71.552,28.328 C72.6080053,26.119989 73.6999944,24.116009 74.828,22.316 C75.9560056,20.515991 77.0479947,19.0400058 78.104,17.888 C79.1600053,16.7359942 80.0719962,16.16 80.84,16.16 L80.912,16.16 Z M147.368,33.944 C149.096009,32.1199909 150.595994,30.21201 151.868,28.22 C153.140006,26.22799 153.776,23.9600127 153.776,21.416 C153.776,19.7359916 153.548002,18.1400076 153.092,16.628 C152.635998,15.1159924 152.060003,13.7000066 151.364,12.38 C150.667997,11.0599934 149.900004,9.83600564 149.06,8.708 C148.219996,7.57999436 147.416004,6.58400432 146.648,5.72 C145.399994,4.37599328 143.936008,3.42800276 142.256,2.876 C140.575992,2.32399724 138.72801,2.048 136.712,2.048 C134.64799,2.048 132.488011,2.2879976 130.232,2.768 C127.975989,3.2480024 125.708011,3.87199616 123.428,4.64 C121.147989,5.40800384 118.940011,6.25999532 116.804,7.196 C114.667989,8.13200468 112.688009,9.05599544 110.864,9.968 C110.239997,10.3040017 109.568004,11.5879888 108.848,13.82 C108.127996,16.0520112 107.396004,18.7999837 106.652,22.064 C105.907996,25.3280163 105.152004,28.8799808 104.384,32.72 C103.615996,36.5600192 102.860004,40.2679821 102.116,43.844 C101.371996,47.4200179 100.652003,50.611986 99.956,53.42 C99.2599965,56.228014 98.6000031,58.231994 97.976,59.432 C97.5919981,60.5840058 97.4,61.5199964 97.4,62.24 C97.4,63.440006 97.6759972,64.4239962 98.228,65.192 C98.7800028,65.9600038 99.4999956,66.6079974 100.388,67.136 C101.276004,67.6640026 102.295994,68.1199981 103.448,68.504 C104.600006,68.8880019 105.751994,69.2719981 106.904,69.656 C107.528003,69.8000007 108.151997,69.872 108.776,69.872 C109.784005,69.872 110.527998,69.6320024 111.008,69.152 C111.488002,68.6719976 111.943998,67.9520048 112.376,66.992 C113.048003,64.2559863 113.779996,61.5080138 114.572,58.748 C115.364004,55.9879862 116.167996,53.1680144 116.984,50.288 C119.864014,49.4239957 122.755985,48.4040059 125.66,47.228 C128.564015,46.0519941 131.347987,44.768007 134.012,43.376 C136.676013,41.983993 139.147989,40.484008 141.428,38.876 C143.708011,37.267992 145.687992,35.6240084 147.368,33.944 L147.368,33.944 Z M126.992,19.544 C128.576008,18.8719966 130.111993,18.3920014 131.6,18.104 C133.088007,17.8159986 134.383994,17.672 135.488,17.672 C136.352004,17.672 136.987998,17.7079996 137.396,17.78 C137.804002,17.8520004 138.067999,17.9479994 138.188,18.068 C138.308001,18.1880006 138.344,18.3079994 138.296,18.428 C138.248,18.5480006 138.224,18.6559995 138.224,18.752 C138.224,19.6640046 137.876003,20.7079941 137.18,21.884 C136.483997,23.0600059 135.476007,24.2839936 134.156,25.556 C132.835993,26.8280064 131.19201,28.0999936 129.224,29.372 C127.25599,30.6440064 125.000013,31.783995 122.456,32.792 C123.272004,30.3439878 124.051996,28.0280109 124.796,25.844 C125.540004,23.6599891 126.271996,21.5600101 126.992,19.544 L126.992,19.544 Z M201.872,13.784 C202.256002,13.0639964 202.555999,12.404003 202.772,11.804 C202.988001,11.203997 203.096,10.5920031 203.096,9.968 C203.096,9.39199712 202.796003,8.61200492 202.196,7.628 C201.595997,6.64399508 200.816005,5.68400468 199.856,4.748 C198.895995,3.81199532 197.828006,3.00800336 196.652,2.336 C195.475994,1.66399664 194.288006,1.328 193.088,1.328 C192.367996,1.328 191.708003,1.49599832 191.108,1.832 C190.507997,2.16800168 190.016002,2.79199544 189.632,3.704 C187.471989,7.25601776 185.276011,10.8079822 183.044,14.36 C180.811989,17.9120178 178.520012,21.4639822 176.168,25.016 C175.447996,21.5599827 174.728004,18.2960154 174.008,15.224 C173.287996,12.1519846 172.640003,9.46401152 172.064,7.16 C171.823999,6.4399964 171.584001,5.80400276 171.344,5.252 C171.103999,4.69999724 170.804002,4.23200192 170.444,3.848 C170.083998,3.46399808 169.640003,3.14000132 169.112,2.876 C168.583997,2.61199868 167.912004,2.38400096 167.096,2.192 L167.168,2.264 C166.447996,2.07199904 165.788003,1.95200024 165.188,1.904 C164.587997,1.85599976 164.000003,1.832 163.424,1.832 C160.783987,1.832 158.852006,2.04799784 157.628,2.48 C156.403994,2.91200216 155.792,3.82399304 155.792,5.216 C155.792,5.84000312 155.863999,6.43999712 156.008,7.016 C156.440002,9.46401224 156.919997,12.1519854 157.448,15.08 C157.976003,18.0080146 158.563997,21.0439843 159.212,24.188 C159.860003,27.3320157 160.519997,30.499984 161.192,33.692 C161.864003,36.884016 162.559996,39.9439854 163.28,42.872 C162.751997,44.8400098 162.260002,46.7479908 161.804,48.596 C161.347998,50.4440092 160.952002,52.2079916 160.616,53.888 L160.688,53.816 C160.303998,55.4000079 159.908002,56.9479924 159.5,58.46 C159.091998,59.9720076 158.888,61.3039942 158.888,62.456 C158.888,63.6080058 159.187997,64.579996 159.788,65.372 C160.388003,66.164004 161.167995,66.8479971 162.128,67.424 C163.088005,68.0000029 164.143994,68.491998 165.296,68.9 C166.448006,69.308002 167.599994,69.7039981 168.752,70.088 C169.616004,70.3760014 170.335997,70.52 170.912,70.52 C171.872005,70.52 172.567998,70.2800024 173,69.8 C173.432002,69.3199976 173.815998,68.6000048 174.152,67.64 C174.872004,64.5199844 175.663996,61.3760158 176.528,58.208 C177.392004,55.0399842 178.375994,51.8000166 179.48,48.488 C181.688011,45.3199842 183.943988,42.0440169 186.248,38.66 C188.552012,35.2759831 190.73599,32.0240156 192.8,28.904 C194.86401,25.7839844 196.687992,22.9160131 198.272,20.3 C199.856008,17.6839869 201.055996,15.5120086 201.872,13.784 L201.872,13.784 Z" id="Copy" fill="#303841" sketch:type="MSShapeGroup"></path>
            <path d="M222.126,53.11 C222.910004,53.8100035 223.553997,54.2929987 224.058,54.559 C224.562003,54.8250013 225.135997,54.958 225.78,54.958 C226.648004,54.958 227.361997,54.7970016 227.922,54.475 C228.482003,54.1529984 229.041997,53.796002 229.602,53.404 L229.56,53.446 C229.952002,53.1659986 230.252999,52.8930013 230.463,52.627 C230.673001,52.3609987 230.778,52.0460018 230.778,51.682 C230.778,51.485999 230.701001,51.2480014 230.547,50.968 C230.392999,50.6879986 230.197001,50.4010015 229.959,50.107 C229.720999,49.8129985 229.462001,49.5120015 229.182,49.204 C228.901999,48.8959985 228.622001,48.5880015 228.342,48.28 L228.342,48.322 L227.628,47.566 C227.992002,47.2859986 228.355998,46.9010024 228.72,46.411 C229.084002,45.9209976 229.405999,45.3890029 229.686,44.815 C229.966001,44.2409971 230.189999,43.6670029 230.358,43.093 C230.526001,42.5189971 230.61,41.9800025 230.61,41.476 C230.61,41.1119982 230.561,40.734002 230.463,40.342 C230.365,39.949998 230.225001,39.5930016 230.043,39.271 C229.860999,38.9489984 229.630001,38.690001 229.35,38.494 C229.069999,38.297999 228.748002,38.2 228.384,38.2 C228.019998,38.2 227.614002,38.3259987 227.166,38.578 C226.717998,38.8300013 226.249002,39.1379982 225.759,39.502 C225.268998,39.8660018 224.779002,40.2579979 224.289,40.678 C223.798998,41.0980021 223.330002,41.4759983 222.882,41.812 C222.405998,41.1679968 221.944002,40.5380031 221.496,39.922 C221.047998,39.3059969 220.600002,38.6620034 220.152,37.99 C221.552007,37.1779959 222.916993,36.3240045 224.247,35.428 C225.577007,34.5319955 226.689996,33.6080048 227.586,32.656 L227.544,32.656 C229.50401,30.6119898 230.484,28.4420115 230.484,26.146 C230.484,23.7939882 229.49001,21.5120111 227.502,19.3 C226.325994,17.9559933 225.192005,17.0460024 224.1,16.57 C223.007995,16.0939976 221.874006,15.856 220.698,15.856 C219.521994,15.856 218.318006,16.0099985 217.086,16.318 C215.853994,16.6260015 214.671006,17.0739971 213.537,17.662 C212.402994,18.2500029 211.360005,18.9639958 210.408,19.804 C209.455995,20.6440042 208.672003,21.5819948 208.056,22.618 L208.056,22.576 C206.935994,24.3960091 206.376,26.201991 206.376,27.994 C206.376,28.4420022 206.411,28.9389973 206.481,29.485 C206.551,30.0310027 206.669999,30.604997 206.838,31.207 C207.006001,31.809003 207.215999,32.410997 207.468,33.013 C207.720001,33.615003 208.027998,34.1819973 208.392,34.714 C208.42,34.8260006 208.489999,35.0219986 208.602,35.302 C207.285993,36.0860039 206.082005,36.9049957 204.99,37.759 C203.897995,38.6130043 202.960004,39.5019954 202.176,40.426 C201.391996,41.3500046 200.783002,42.308995 200.349,43.303 C199.914998,44.297005 199.698,45.3119948 199.698,46.348 C199.698,47.4120053 199.970997,48.5319941 200.517,49.708 C201.063003,50.8840059 201.979994,52.0039947 203.268,53.068 C204.556006,54.1320053 205.822994,54.8529981 207.069,55.231 C208.315006,55.6090019 209.525994,55.8119999 210.702,55.84 C211.570004,55.84 212.402996,55.7490009 213.201,55.567 C213.999004,55.3849991 214.761996,55.1820011 215.49,54.958 L215.448,54.958 C216.540005,54.7059987 217.589995,54.3700021 218.598,53.95 C219.606005,53.5299979 220.571995,53.0400028 221.496,52.48 L222.126,53.11 Z M215.91,29.128 C215.91,28.5399971 216.070998,27.9520029 216.393,27.364 C216.715002,26.7759971 217.134997,26.2300025 217.653,25.726 C218.171003,25.2219975 218.772997,24.774002 219.459,24.382 C220.145003,23.989998 220.865996,23.6820011 221.622,23.458 C221.874001,23.8780021 222,24.3119978 222,24.76 C222,25.4320034 221.832002,26.068997 221.496,26.671 C221.159998,27.273003 220.726003,27.8329974 220.194,28.351 C219.661997,28.8690026 219.046003,29.3519978 218.346,29.8 C217.645996,30.2480022 216.946003,30.667998 216.246,31.06 C216.105999,30.7239983 216.015,30.3950016 215.973,30.073 C215.931,29.7509984 215.91,29.4360015 215.91,29.128 L215.91,29.128 Z M209.988,48.028 C209.651998,48.028 209.428001,48.0070002 209.316,47.965 C209.203999,47.9229998 209.148,47.7760013 209.148,47.524 L209.148,47.44 C209.204,46.8239969 209.532997,46.0960042 210.135,45.256 C210.737003,44.4159958 211.723993,43.4640053 213.096,42.4 C213.572002,43.0440032 214.026998,43.666997 214.461,44.269 C214.895002,44.871003 215.363997,45.4939968 215.868,46.138 C214.607994,46.7540031 213.481005,47.2229984 212.487,47.545 C211.492995,47.8670016 210.660003,48.028 209.988,48.028 L209.988,48.028 Z" id="&amp;" fill="#D3CFCF" sketch:type="MSShapeGroup"></path>
            <path d="M289.24,33.944 C290.968009,32.1199909 292.467994,30.21201 293.74,28.22 C295.012006,26.22799 295.648,23.9600127 295.648,21.416 C295.648,19.7359916 295.420002,18.1400076 294.964,16.628 C294.507998,15.1159924 293.932003,13.7000066 293.236,12.38 C292.539997,11.0599934 291.772004,9.83600564 290.932,8.708 C290.091996,7.57999436 289.288004,6.58400432 288.52,5.72 C287.271994,4.37599328 285.808008,3.42800276 284.128,2.876 C282.447992,2.32399724 280.60001,2.048 278.584,2.048 C276.51999,2.048 274.360011,2.2879976 272.104,2.768 C269.847989,3.2480024 267.580011,3.87199616 265.3,4.64 C263.019989,5.40800384 260.812011,6.25999532 258.676,7.196 C256.539989,8.13200468 254.560009,9.05599544 252.736,9.968 C252.111997,10.3040017 251.440004,11.5879888 250.72,13.82 C249.999996,16.0520112 249.268004,18.7999837 248.524,22.064 C247.779996,25.3280163 247.024004,28.8799808 246.256,32.72 C245.487996,36.5600192 244.732004,40.2679821 243.988,43.844 C243.243996,47.4200179 242.524003,50.611986 241.828,53.42 C241.131997,56.228014 240.472003,58.231994 239.848,59.432 C239.463998,60.5840058 239.272,61.5199964 239.272,62.24 C239.272,63.440006 239.547997,64.4239962 240.1,65.192 C240.652003,65.9600038 241.371996,66.6079974 242.26,67.136 C243.148004,67.6640026 244.167994,68.1199981 245.32,68.504 C246.472006,68.8880019 247.623994,69.2719981 248.776,69.656 C249.400003,69.8000007 250.023997,69.872 250.648,69.872 C251.656005,69.872 252.399998,69.6320024 252.88,69.152 C253.360002,68.6719976 253.815998,67.9520048 254.248,66.992 C254.920003,64.2559863 255.651996,61.5080138 256.444,58.748 C257.236004,55.9879862 258.039996,53.1680144 258.856,50.288 C261.736014,49.4239957 264.627985,48.4040059 267.532,47.228 C270.436015,46.0519941 273.219987,44.768007 275.884,43.376 C278.548013,41.983993 281.019989,40.484008 283.3,38.876 C285.580011,37.267992 287.559992,35.6240084 289.24,33.944 L289.24,33.944 Z M268.864,19.544 C270.448008,18.8719966 271.983993,18.3920014 273.472,18.104 C274.960007,17.8159986 276.255994,17.672 277.36,17.672 C278.224004,17.672 278.859998,17.7079996 279.268,17.78 C279.676002,17.8520004 279.939999,17.9479994 280.06,18.068 C280.180001,18.1880006 280.216,18.3079994 280.168,18.428 C280.12,18.5480006 280.096,18.6559995 280.096,18.752 C280.096,19.6640046 279.748003,20.7079941 279.052,21.884 C278.355997,23.0600059 277.348007,24.2839936 276.028,25.556 C274.707993,26.8280064 273.06401,28.0999936 271.096,29.372 C269.12799,30.6440064 266.872013,31.783995 264.328,32.792 C265.144004,30.3439878 265.923996,28.0280109 266.668,25.844 C267.412004,23.6599891 268.143996,21.5600101 268.864,19.544 L268.864,19.544 Z M324.376,62.528 C324.472,64.4480096 324.795997,65.803996 325.348,66.596 C325.900003,67.388004 326.919993,68.0239976 328.408,68.504 L328.336,68.432 C329.584006,68.9600026 330.783994,69.2719995 331.936,69.368 C333.088006,69.4640005 334.335993,69.512 335.68,69.512 C337.456009,69.512 338.631997,69.2240029 339.208,68.648 C339.784003,68.0719971 340.072,67.0160077 340.072,65.48 C340.216001,60.871977 340.383999,56.0120256 340.576,50.9 C340.768001,45.7879744 340.995999,40.7840245 341.26,35.888 C341.524001,30.9919755 341.811998,26.3600218 342.124,21.992 C342.436002,17.6239782 342.783998,13.8560158 343.168,10.688 L343.168,10.76 C343.216,10.5199988 343.24,10.2800012 343.24,10.04 L343.24,9.248 C343.24,7.99999376 342.976003,6.98000396 342.448,6.188 C341.919997,5.39599604 340.912007,4.73600264 339.424,4.208 L338.128,3.848 C336.447992,3.27199712 334.492011,2.70800276 332.26,2.156 C330.027989,1.60399724 327.256017,1.328 323.944,1.328 C321.97599,1.328 320.428006,1.7479958 319.3,2.588 C318.171994,3.4280042 317.200004,4.47199376 316.384,5.72 C314.223989,9.0800168 311.860013,13.0159774 309.292,17.528 C306.723987,22.0400226 304.156013,26.695976 301.588,31.496 C299.019987,36.296024 296.572012,41.0119768 294.244,45.644 C291.915988,50.2760232 289.936008,54.4159818 288.304,58.064 C287.967998,58.8800041 287.740001,59.5999969 287.62,60.224 C287.499999,60.8480031 287.44,61.4239974 287.44,61.952 C287.44,62.7200038 287.631998,63.403997 288.016,64.004 C288.400002,64.604003 288.891997,65.1559975 289.492,65.66 C290.092003,66.1640025 290.775996,66.6319978 291.544,67.064 C292.312004,67.4960022 293.079996,67.9039981 293.848,68.288 L294.712,68.72 C295.624005,69.1040019 296.463996,69.296 297.232,69.296 C298.096004,69.296 298.887996,68.8640043 299.608,68 C300.328004,67.1359957 301.047996,66.0440066 301.768,64.724 C302.488004,63.4039934 303.195997,61.9640078 303.892,60.404 C304.588003,58.8439922 305.319996,57.3920067 306.088,56.048 C308.488012,55.4239969 311.259984,54.8600025 314.404,54.356 C317.548016,53.8519975 320.751984,53.3600024 324.016,52.88 L324.16,54.32 C324.16,57.4400156 324.231999,60.1759882 324.376,62.528 L324.376,62.528 Z M325.24,21.632 C325.047999,24.224013 324.880001,26.8639866 324.736,29.552 C324.591999,32.2400134 324.448001,34.9519863 324.304,37.688 C322.815993,37.7840005 321.352007,37.9039993 319.912,38.048 C318.471993,38.1920007 317.008007,38.3839988 315.52,38.624 C317.200008,35.5519846 318.867992,32.5880143 320.524,29.732 C322.180008,26.8759857 323.751993,24.1760127 325.24,21.632 L325.24,21.632 Z M341.872,49.28 C341.199997,49.6640019 340.672002,50.1439971 340.288,50.72 C339.903998,51.2960029 339.664,51.9199966 339.568,52.592 L339.568,52.88 C339.568,53.9840055 340.57599,55.735988 342.592,58.136 C345.904017,62.2640206 349.335982,65.2159911 352.888,66.992 C356.440018,68.7680089 360.18398,69.656 364.12,69.656 L365.056,69.656 C368.176016,69.6079998 370.875989,69.1640042 373.156,68.324 C375.436011,67.4839958 377.367992,66.4520061 378.952,65.228 C380.536008,64.0039939 381.819995,62.696007 382.804,61.304 C383.788005,59.911993 384.567997,58.616006 385.144,57.416 L385.072,57.488 C385.840004,55.9999926 386.224,54.5840067 386.224,53.24 C386.224,51.2239899 385.576006,49.412008 384.28,47.804 C382.983994,46.195992 381.37601,44.6360076 379.456,43.124 C377.53599,41.6119924 375.508011,40.0760078 373.372,38.516 C371.235989,36.9559922 369.328008,35.2640091 367.648,33.44 C367.119997,32.9119974 366.748001,32.3360031 366.532,31.712 C366.315999,31.0879969 366.208,30.4640031 366.208,29.84 C366.208,28.5439935 366.531997,27.2120068 367.18,25.844 C367.828003,24.4759932 368.607995,23.1800061 369.52,21.956 C370.432005,20.7319939 371.403995,19.6640046 372.436,18.752 C373.468005,17.8399954 374.391996,17.1680022 375.208,16.736 C375.256,16.6879998 375.28,16.664 375.28,16.664 C375.328,16.664 375.376,16.6400002 375.424,16.592 C375.279999,17.4080041 375.052002,18.3679945 374.74,19.472 C374.427998,20.5760055 374.116002,21.6919944 373.804,22.82 C373.491998,23.9480056 373.216001,24.9919952 372.976,25.952 C372.735999,26.9120048 372.616,27.6319976 372.616,28.112 C372.616,32.1440202 375.61597,35.3119885 381.616,37.616 C382.384004,37.9040014 383.127996,38.048 383.848,38.048 C384.712004,38.048 385.407997,37.8320022 385.936,37.4 C386.464003,36.9679978 386.967998,36.2720048 387.448,35.312 C388.024003,34.2079945 388.587997,32.9240073 389.14,31.46 C389.692003,29.9959927 390.207998,28.4840078 390.688,26.924 C391.168002,25.3639922 391.599998,23.8280076 391.984,22.316 C392.368002,20.8039924 392.655999,19.4240062 392.848,18.176 L392.848,16.448 C392.848,15.055993 392.656002,13.6280073 392.272,12.164 C391.887998,10.6999927 390.928008,9.20000768 389.392,7.664 C388.479995,6.75199544 387.388006,5.88800408 386.116,5.072 C384.843994,4.25599592 383.500007,3.52400324 382.084,2.876 C380.667993,2.22799676 379.252007,1.71200192 377.836,1.328 C376.419993,0.94399808 375.112006,0.752 373.912,0.752 C372.183991,0.752 370.612007,0.9919976 369.196,1.472 C367.779993,1.9520024 366.664004,2.52799664 365.848,3.2 L365.92,3.128 C364.239992,4.0880048 362.548009,5.29999268 360.844,6.764 C359.139991,8.22800732 357.532008,9.7999916 356.02,11.48 C354.507992,13.1600084 353.164006,14.899991 351.988,16.7 C350.811994,18.500009 349.936003,20.2159918 349.36,21.848 L349.432,21.776 C348.279994,24.4640134 347.704,27.0319878 347.704,29.48 C347.704,31.9280122 348.183995,34.2079894 349.144,36.32 C350.104005,38.4320106 351.423992,40.2799921 353.104,41.864 L353.104,41.792 C354.448007,43.184007 355.995991,44.5399934 357.748,45.86 C359.500009,47.1800066 361.167992,48.4159942 362.752,49.568 C364.336008,50.7200058 365.691994,51.7399956 366.82,52.628 C367.948006,53.5160044 368.56,54.2479971 368.656,54.824 C368.031997,55.3040024 367.192005,55.544 366.136,55.544 C363.063985,55.544 359.008025,53.7200182 353.968,50.072 C353.103996,49.3999966 352.096006,48.9080016 350.944,48.596 C349.791994,48.2839984 348.592006,48.128 347.344,48.128 C346.479996,48.128 345.592005,48.2119992 344.68,48.38 C343.767995,48.5480008 342.880004,48.8239981 342.016,49.208 L341.872,49.28 Z M442.816,12.488 C442.816,11.8159966 442.720001,11.0960038 442.528,10.328 C442.335999,9.55999616 442.072002,8.78000396 441.736,7.988 C441.399998,7.19599604 441.028002,6.4400036 440.62,5.72 C440.211998,4.9999964 439.792002,4.35200288 439.36,3.776 C438.783997,3.10399664 438.112004,2.5880018 437.344,2.228 C436.575996,1.8679982 435.424008,1.688 433.888,1.688 C431.343987,1.78400048 428.488016,1.9519988 425.32,2.192 C422.151984,2.4320012 418.912017,2.71999832 415.6,3.056 C412.287983,3.39200168 409.036016,3.77599784 405.844,4.208 C402.651984,4.64000216 399.784013,5.0959976 397.24,5.576 C396.279995,5.76800096 395.548003,6.06799796 395.044,6.476 C394.539997,6.88400204 394.288,7.54399544 394.288,8.456 C394.288,9.08000312 394.383999,9.67999712 394.576,10.256 L394.576,10.184 L394.792,10.832 C395.080001,11.6960043 395.451998,12.6559947 395.908,13.712 C396.364002,14.7680053 396.891997,15.7759952 397.492,16.736 C398.092003,17.6960048 398.787996,18.4999968 399.58,19.148 C400.372004,19.7960032 401.271995,20.12 402.28,20.12 C403.192005,20.12 404.151995,20.0000012 405.16,19.76 C406.168005,19.5199988 407.367993,19.2800012 408.76,19.04 C407.799995,22.2080158 406.804005,25.6519814 405.772,29.372 C404.739995,33.0920186 403.768005,36.7879816 402.856,40.46 C401.943995,44.1320184 401.116004,47.6479832 400.372,51.008 C399.627996,54.3680168 399.040002,57.247988 398.608,59.648 L398.608,59.576 C398.367999,60.5360048 398.248,61.3039971 398.248,61.88 C398.248,63.7040091 398.859994,65.0599956 400.084,65.948 C401.308006,66.8360044 402.87999,67.6159966 404.8,68.288 L404.728,68.288 C405.736005,68.6720019 406.743995,69.0079986 407.752,69.296 C408.760005,69.5840014 409.599997,69.728 410.272,69.728 C411.136004,69.728 411.855997,69.5120022 412.432,69.08 C413.008003,68.6479978 413.415999,67.8800055 413.656,66.776 L413.584,66.848 C414.592005,63.0079808 415.683994,58.9520214 416.86,54.68 C418.036006,50.4079786 419.271994,46.1000217 420.568,41.756 C421.864006,37.4119783 423.159994,33.0920215 424.456,28.796 C425.752006,24.4999785 426.999994,20.4080194 428.2,16.52 C430.16801,16.327999 432.051991,16.1600007 433.852,16.016 C435.652009,15.8719993 437.391992,15.6800012 439.072,15.44 C440.512007,15.3439995 441.495997,15.0680023 442.024,14.612 C442.552003,14.1559977 442.816,13.4480048 442.816,12.488 L442.816,12.488 Z M447.208,7.448 L434.68,55.4 C434.535999,56.1200036 434.464,56.8399964 434.464,57.56 C434.464,58.8080062 434.655998,59.8639957 435.04,60.728 C435.424002,61.5920043 435.951997,62.3839964 436.624,63.104 L436.624,63.032 C437.440004,63.9920048 438.195997,64.8439963 438.892,65.588 C439.588003,66.3320037 440.271997,66.9799972 440.944,67.532 C441.616003,68.0840028 442.347996,68.5039986 443.14,68.792 C443.932004,69.0800014 444.855995,69.224 445.912,69.224 C446.824005,69.224 447.951993,69.0560017 449.296,68.72 L449.224,68.792 C452.248015,68.1199966 455.379984,67.4360035 458.62,66.74 C461.860016,66.0439965 465.015985,65.3600034 468.088,64.688 C469.480007,64.3999986 470.439997,64.0400022 470.968,63.608 C471.496003,63.1759978 471.76,62.4080055 471.76,61.304 C471.76,60.0559938 471.532002,58.736007 471.076,57.344 C470.619998,55.951993 470.104003,54.6800058 469.528,53.528 L469.528,53.6 C469.095998,52.4479942 468.484004,51.6200025 467.692,51.116 C466.899996,50.6119975 465.856006,50.36 464.56,50.36 C462.399989,50.36 460.34801,50.5039986 458.404,50.792 C456.45999,51.0800014 454.576009,51.3919983 452.752,51.728 C452.848,50.8639957 453.087998,49.8680056 453.472,48.74 C453.856002,47.6119944 454.239998,46.5680048 454.624,45.608 C456.304008,45.2239981 458.007991,44.8760016 459.736,44.564 C461.464009,44.2519984 463.239991,43.9040019 465.064,43.52 L464.992,43.52 C466.240006,43.327999 467.451994,43.1480008 468.628,42.98 C469.804006,42.8119992 470.835996,42.5840014 471.724,42.296 C472.612004,42.0079986 473.331997,41.6120025 473.884,41.108 C474.436003,40.6039975 474.712,39.9440041 474.712,39.128 C474.712,38.6959978 474.616001,38.1200036 474.424,37.4 L474.496,37.472 C474.255999,36.463995 474.016001,35.4680049 473.776,34.484 C473.535999,33.4999951 473.128003,32.4560055 472.552,31.352 L472.552,31.424 C472.023997,30.223994 471.352004,29.4080022 470.536,28.976 C469.719996,28.5439978 468.616007,28.328 467.224,28.328 L466.72,28.328 C464.607989,28.3760002 462.52001,28.5199988 460.456,28.76 C461.128003,26.9359909 461.775997,25.1000092 462.4,23.252 C463.024003,21.4039908 463.623997,19.6880079 464.2,18.104 C467.176015,17.6719978 469.983987,17.3000016 472.624,16.988 C475.264013,16.6759984 477.831988,16.4000012 480.328,16.16 C481.912008,15.967999 482.991997,15.6080026 483.568,15.08 C484.144003,14.5519974 484.432,13.6400065 484.432,12.344 C484.432,11.6719966 484.336001,11.0240031 484.144,10.4 L484.216,10.472 C484.071999,9.65599592 483.904001,8.8880036 483.712,8.168 C483.519999,7.4479964 483.184002,6.53600552 482.704,5.432 L482.704,5.504 C482.271998,4.25599376 481.636004,3.32000312 480.796,2.696 C479.955996,2.07199688 478.768008,1.76 477.232,1.76 L476.872,1.76 C474.327987,1.85600048 471.760013,2.07199832 469.168,2.408 C466.575987,2.74400168 464.044012,3.12799784 461.572,3.56 C459.099988,3.99200216 456.724011,4.45999748 454.444,4.964 C452.163989,5.46800252 450.06401,5.9599976 448.144,6.44 L447.208,7.448 Z" id="PASTE" fill="#303841" sketch:type="MSShapeGroup"></path>
        </g>
    </g>
</svg>